<svg xmlns="http://www.w3.org/2000/svg" xmlns:xlink="http://www.w3.org/1999/xlink" viewBox="0 0 508.74 127.23"><defs><style>.cls-1{fill:url(#Dégradé_sans_nom_2);}.cls-2{fill:url(#Dégradé_sans_nom_2-2);}.cls-3{fill:url(#Dégradé_sans_nom_2-3);}.cls-4{fill:url(#Dégradé_sans_nom_2-4);}.cls-5{fill:url(#Dégradé_sans_nom_2-5);}.cls-6{fill:url(#Dégradé_sans_nom_2-6);}.cls-7{fill:url(#Dégradé_sans_nom_2-7);}.cls-8{fill:url(#Dégradé_sans_nom_2-8);}.cls-9{fill:url(#Dégradé_sans_nom_2-9);}.cls-10{fill:url(#Dégradé_sans_nom_2-10);}.cls-11{fill:url(#Dégradé_sans_nom_2-11);}.cls-12{fill:url(#Dégradé_sans_nom_2-12);}.cls-13{fill:url(#Dégradé_sans_nom_2-13);}.cls-14{fill:#33b9c9;}</style><linearGradient id="Dégradé_sans_nom_2" x1="14.1" y1="100.41" x2="14.1" y2="50.39" gradientUnits="userSpaceOnUse"><stop offset="0"/><stop offset="1" stop-color="#fff"/></linearGradient><linearGradient id="Dégradé_sans_nom_2-2" x1="152.09" y1="100.42" x2="152.09" y2="50.54" xlink:href="#Dégradé_sans_nom_2"/><linearGradient id="Dégradé_sans_nom_2-3" x1="332.99" y1="100.41" x2="332.99" y2="50.41" xlink:href="#Dégradé_sans_nom_2"/><linearGradient id="Dégradé_sans_nom_2-4" x1="193.31" y1="100.41" x2="193.31" y2="50.39" xlink:href="#Dégradé_sans_nom_2"/><linearGradient id="Dégradé_sans_nom_2-5" x1="227.8" y1="100.41" x2="227.8" y2="50.39" xlink:href="#Dégradé_sans_nom_2"/><linearGradient id="Dégradé_sans_nom_2-6" x1="257.13" y1="100.41" x2="257.13" y2="50.39" xlink:href="#Dégradé_sans_nom_2"/><linearGradient id="Dégradé_sans_nom_2-7" x1="369.14" y1="100.41" x2="369.14" y2="50.39" xlink:href="#Dégradé_sans_nom_2"/><linearGradient id="Dégradé_sans_nom_2-8" x1="294.32" y1="100.41" x2="294.32" y2="50.39" xlink:href="#Dégradé_sans_nom_2"/><linearGradient id="Dégradé_sans_nom_2-9" x1="493.54" y1="100.41" x2="493.54" y2="50.39" xlink:href="#Dégradé_sans_nom_2"/><linearGradient id="Dégradé_sans_nom_2-10" x1="69.71" y1="100.41" x2="69.71" y2="50.39" xlink:href="#Dégradé_sans_nom_2"/><linearGradient id="Dégradé_sans_nom_2-11" x1="112.81" y1="100.41" x2="112.81" y2="50.5" xlink:href="#Dégradé_sans_nom_2"/><linearGradient id="Dégradé_sans_nom_2-12" x1="453.2" y1="100.41" x2="453.2" y2="50.39" xlink:href="#Dégradé_sans_nom_2"/><linearGradient id="Dégradé_sans_nom_2-13" x1="409.25" y1="100.41" x2="409.25" y2="50.39" xlink:href="#Dégradé_sans_nom_2"/></defs><title>Logo</title><g id="Calque_2" data-name="Calque 2"><path class="cls-1" d="M15.12,1.35V81.71H26.76v23H1.43V1.35S15.12,1.05,15.12,1.35Z"/><path class="cls-2" d="M168.67,31.1c-.1.55-11.84-17.37-17,.2-4.52,15.46-1.61,33.57-.34,41.22.46,2.78,1.85,8.19,4.07,9.93,3.19,2.51,8.15,3.53,13.25-6.67,0,1.6,0,21.85,0,21.85s-12.29,13.27-20.88,5.27-12.29-24-12.29-53.65c0-20.67,3-32,5.16-37.9,1.06-3,3.49-7.11,6.12-8.83C151.59-.62,160.68-2.1,168.62,9,168.62,9,168.6,29.36,168.67,31.1Z"/><path class="cls-3" d="M349.53,31.1c-.1.55-11.84-17.37-17,.2C328,46.76,331,64.86,332.22,72.52c.46,2.78,1.85,8.19,4.07,9.93,3.19,2.51,8.15,3.53,13.25-6.67,0,1.6,0,21.85,0,21.85s-12.29,13.27-20.88,5.27-12.29-24-12.29-53.65c0-20.67,3-32,5.16-37.9,1.06-3,3.49-7.11,6.12-8.83,4.81-3.13,14-5.28,22,5.86C349.61,8.38,349.47,29.36,349.53,31.1Z"/><path class="cls-4" d="M174.25,1.55h14.53V40.69h9.61V1.55h14.06V103.27H197.92V63.19h-9.14V103H175S173.9,1.2,174.25,1.55Z"/><path class="cls-5" d="M221.12,1.79h13.36V103.5H221.36S221.12,1.08,221.12,1.79Z"/><path class="cls-6" d="M239.74,1.33h34.82V25.46H264.25v77.81H250.89V25.69H239.7S239.74,2,239.74,1.33Z"/><path class="cls-7" d="M351.74,1.33h34.82V25.46H376.25v77.81H362.89V25.69H351.72S351.74,2,351.74,1.33Z"/><path class="cls-8" d="M309,1.46H279.13V103.08h30.38V82.5H292.67V64.32h16V42.14H292.94V24.5h16S309,.87,309,1.46Z"/><path class="cls-9" d="M508.5,1.46H478.35V103.08h30.38V82.5H491.9V64.32h16V42.14H492.16V24.5h16.37S508.5.87,508.5,1.46Z"/><path class="cls-10" d="M80.05,1.34H59.38l-9.9,102.5h13.1l2.33-21.55h9.9l3.49,21.84H90ZM65.42,60.82l4.26-47.34,5,47.34Z"/><path class="cls-11" d="M130.72,29.3c0-28.24-14.5-27.74-14.5-27.74L94.9,1.64V103.26h12.81V59.87l2.09,0,8.1,42.47h12.81l-9-43.68S130.72,57.54,130.72,29.3ZM107.85,45.46V22.34s9.61-2,9.61,10.78C117.46,48.63,107.85,45.46,107.85,45.46Z"/><path class="cls-12" d="M471.11,29.3c0-28.24-14-28-14-28l-21.84.29V103.26H448.1V59.87l2.09,0,8.1,42.47h12.81l-9-43.68S471.11,57.54,471.11,29.3ZM448.24,45.46V22.34s9.61-2,9.61,10.78C457.85,48.63,448.24,45.46,448.24,45.46Z"/><path class="cls-13" d="M404.38,1.71V78s-.28,6.54,4.78,6.54S413.91,78,413.91,78V1.5h12.83V82s1.06,23.42-17.3,23.42-17.68-22.68-17.68-22.68v-81S404.38,1.6,404.38,1.71Z"/><path class="cls-14" d="M39.7,41.23s5.58-5.71,5.18-39.59h-11s1,25.26-3.54,39.47C33.09,41.26,39.7,41.23,39.7,41.23Z"/><path class="cls-14" d="M27.35,102.94V80.66h-3V94.94a13.69,13.69,0,1,0,0,17.14v4.57h3V104.07c0-.19,0-.38,0-.57S27.36,103.13,27.35,102.94ZM13.69,114.31a10.8,10.8,0,1,1,10.66-12.48v3.35A10.81,10.81,0,0,1,13.69,114.31Z"/><path class="cls-14" d="M162.73,89.82a13.69,13.69,0,1,0,13.69,13.69A13.7,13.7,0,0,0,162.73,89.82Zm0,24.49a10.8,10.8,0,1,1,10.8-10.8A10.82,10.82,0,0,1,162.73,114.31Z"/><path class="cls-14" d="M454.49,89.82a13.69,13.69,0,1,0,13.69,13.69A13.7,13.7,0,0,0,454.49,89.82Zm0,24.49a10.8,10.8,0,1,1,10.8-10.8A10.82,10.82,0,0,1,454.49,114.31Z"/><path class="cls-14" d="M69.76,104.36h1.67c0-7.55-6.29-14.55-13.84-14.55a13.7,13.7,0,1,0,12.27,18.69H67.18a10.8,10.8,0,0,1-20.34-4.14H69.76ZM47,101.48A10.82,10.82,0,0,1,57.6,92.7c5,0,9.28,4,10.55,8.78Z"/><path class="cls-14" d="M361.65,104.36h1.67c0-7.55-6.29-14.55-13.84-14.55a13.7,13.7,0,1,0,12.27,18.69h-2.69a10.8,10.8,0,0,1-20.34-4.14h22.92Zm-22.77-2.88a10.82,10.82,0,0,1,10.61-8.78c5,0,9.28,4,10.55,8.78Z"/><path class="cls-14" d="M268.35,104.36H270c0-7.55-6.29-14.55-13.84-14.55a13.7,13.7,0,1,0,12.27,18.69h-2.69a10.8,10.8,0,0,1-20.34-4.14h22.92Zm-22.77-2.88a10.82,10.82,0,0,1,10.61-8.78c5,0,9.28,4,10.55,8.78Z"/><polygon class="cls-14" points="122.61 111.45 113.16 90.04 110.41 91.25 122.52 118.67 135.5 91.12 132.78 89.85 122.61 111.45"/><polygon class="cls-14" points="198.59 81.29 195.59 81.29 195.59 89.78 189.95 89.78 189.95 92.78 195.59 92.78 195.59 116.33 198.59 116.33 198.59 92.78 204.54 92.78 204.54 89.78 198.59 89.78 198.59 81.29"/><path class="cls-14" d="M221.68,90.34h-3v26h3V101a8,8,0,0,1,7.78-8h.18V89.94a11.89,11.89,0,0,0-7.94,3.41Z"/><path class="cls-14" d="M315,90.34h-3v26h3V101a8,8,0,0,1,7.78-8h.18V89.94A11.89,11.89,0,0,0,315,93.36Z"/><rect class="cls-14" x="421.64" y="89.6" width="3" height="26.94"/><rect class="cls-14" x="421.7" y="81.45" width="3" height="4.92"/><path class="cls-14" d="M401.83,95.34a13.69,13.69,0,1,0,0,16.32v3.78a8.57,8.57,0,0,1-1.59,5.11c-1.82,2.44-4.68,3.68-8.5,3.68-8.93,0-10.06-5.89-10.11-6.13l-3,.47a9.61,9.61,0,0,0,2.23,4.44c1.66,1.92,4.89,4.22,10.84,4.22s9.25-2.66,10.91-4.88a11.43,11.43,0,0,0,2.18-6.9V90.38h-3Zm-11,19a10.8,10.8,0,1,1,10.8-10.8A10.82,10.82,0,0,1,390.86,114.31Z"/><rect class="cls-14" x="345.49" y="81.29" width="10.55" height="3" transform="translate(11.07 203.21) rotate(-32.8)"/><path class="cls-14" d="M504.81,92.79c-2-2.2-5-3.31-8.87-3.31a11.29,11.29,0,0,0-8.42,3.22c-.25.26-.48.52-.7.8V90.59h-3v11.36c0,.2,0,.32,0,.35h0V115.9h3V102c.06-1,.45-4.75,2.86-7.2a8.42,8.42,0,0,1,6.26-2.3c3,0,5.23.78,6.63,2.3a7.57,7.57,0,0,1,1.71,5.23V116.3h3V100.22A10.51,10.51,0,0,0,504.81,92.79Z"/></g></svg>