<?xml version="1.0" encoding="UTF-8"?>
<svg width="17px" height="18px" viewBox="0 0 17 18" version="1.1" xmlns="http://www.w3.org/2000/svg" xmlns:xlink="http://www.w3.org/1999/xlink">
    <!-- Generator: Sketch 39.1 (31720) - http://www.bohemiancoding.com/sketch -->
    <title>Shape</title>
    <desc>Created with Sketch.</desc>
    <defs></defs>
    <g id="Page-1" stroke="none" stroke-width="1" fill="none" fill-rule="evenodd">
        <g id="maquettes" transform="translate(-1248.000000, -65.000000)" stroke="#FFFFFF" stroke-width="0.5" fill="#FFFFFF">
            <g id="header" transform="translate(730.000000, 62.000000)">
                <path d="M534,18.8913751 L534,18.0490518 C534,17.1905299 533.601491,16.3644051 532.936238,15.8428126 C531.387196,14.6311629 529.809229,13.7855999 529.256458,13.5037455 L529.256458,12.5415531 C529.368941,12.2888561 529.46214,12.0134812 529.532844,11.7154283 C529.944208,11.5664019 530.169172,10.9573373 530.32022,10.4195463 C530.522688,9.70357143 530.500192,9.20141714 530.262372,8.92280251 C530.513047,7.54592784 530.400565,6.53190015 529.931352,5.90663706 C529.683891,5.57942685 529.394651,5.44011953 529.201824,5.37856513 C529.063631,5.18418283 528.784032,4.85697261 528.311607,4.5945565 C527.823112,4.30298304 527.273555,4.15719631 526.669364,4.15719631 C526.560096,4.15719631 526.450827,4.16367572 526.354414,4.17015513 C526.084456,4.18311395 525.817712,4.23494923 525.554182,4.32242127 C525.550968,4.32242127 525.547754,4.32566098 525.544541,4.32566098 C525.2553,4.42609183 524.972487,4.57187856 524.699316,4.75978146 C524.387579,4.96064317 524.101553,5.20038135 523.854091,5.46603717 C523.36881,5.96819146 523.047432,6.53513985 522.90924,7.1409647 C522.777475,7.64311899 522.767833,8.14851299 522.877102,8.64418787 C522.819254,8.68630403 522.767833,8.73489961 522.72284,8.7932143 C522.501089,9.08802747 522.491448,9.55130529 522.687489,10.2543213 C522.822468,10.7402771 523.002439,11.2359519 523.307749,11.4594916 C523.397734,11.9260091 523.548782,12.3504105 523.75125,12.7262163 L523.75125,13.5069852 C523.19848,13.7888396 521.620513,14.6311629 520.07147,15.8460523 C519.406218,16.3676448 519.007709,17.1905299 519.007709,18.0522915 L519.007709,18.8946148 C519.007709,19.5036793 519.499417,19.9961145 520.100395,19.9961145 L532.907314,19.9961145 C533.508291,19.9961145 534,19.5004396 534,18.8913751 Z M519.791871,18.8913751 L519.791871,18.0490518 C519.791871,17.4335078 520.074684,16.8438815 520.550324,16.4713154 C522.22149,15.1657142 523.921581,14.3039527 524.246173,14.1452071 C524.426145,14.0577351 524.538627,13.8763116 524.538627,13.6722102 L524.538627,12.619306 C524.538627,12.5480325 524.519344,12.4799987 524.483993,12.4184443 C524.271883,12.0555973 524.124049,11.6214768 524.050132,11.125802 C524.024422,10.9670564 523.908726,10.8407079 523.757678,10.8018315 C523.715899,10.7532359 523.596989,10.5782918 523.445941,10.0372611 C523.320604,9.59018175 523.330245,9.38284063 523.3431,9.30832741 C523.468438,9.31480682 523.593775,9.25649213 523.67412,9.15606127 C523.757678,9.049151 523.780174,8.90660398 523.735182,8.78025548 C523.568065,8.31049824 523.548782,7.82778218 523.677333,7.33534701 C523.786602,6.86235007 524.037277,6.42175017 524.426145,6.02002674 C524.63504,5.79324738 524.876074,5.59562537 525.133177,5.43040041 C525.13639,5.42716071 525.142818,5.423921 525.146032,5.4206813 C525.361355,5.26841516 525.58632,5.15502548 525.808071,5.07727256 C525.811284,5.07727256 525.814498,5.07403285 525.814498,5.07403285 C526.004111,5.00923875 526.200152,4.97360199 526.405834,4.96388288 C526.968246,4.9152873 527.47281,5.02219757 527.919525,5.28461368 C528.40802,5.55674891 528.607274,5.91311647 528.607274,5.91311647 C528.668336,6.03946497 528.777605,6.11397819 528.919011,6.1236973 C528.928653,6.1236973 529.137548,6.15609435 529.31752,6.41203106 C529.507133,6.68416628 529.777091,7.38394259 529.439644,9.01675395 C529.401079,9.19817744 529.494278,9.37960092 529.658181,9.45735385 C529.67425,9.51566854 529.69996,9.71329055 529.561768,10.2057257 C529.439644,10.6398462 529.340017,10.8374682 529.282169,10.9249403 C529.208252,10.9119814 529.131121,10.9184608 529.060418,10.9508579 C528.938294,11.0026932 528.848308,11.1160829 528.825812,11.2456711 C528.758322,11.6344357 528.649054,11.9843238 528.507647,12.2823767 C528.481937,12.3374517 528.469082,12.3957664 528.469082,12.4540811 L528.469082,13.6722102 C528.469082,13.8763116 528.581564,14.0544954 528.761536,14.1452071 C529.086128,14.3039527 530.786218,15.1689539 532.454171,16.4713154 C532.929811,16.8438815 533.212624,17.4335078 533.212624,18.0490518 L533.212624,18.8913751 C533.212624,19.0598397 533.074431,19.1991471 532.907314,19.1991471 L520.100395,19.1991471 C519.930064,19.2023868 519.791871,19.0630795 519.791871,18.8913751 Z" id="Shape"></path>
            </g>
        </g>
    </g>
</svg>