<?xml version="1.0" encoding="UTF-8"?>
<svg width="16px" height="16px" viewBox="0 0 16 16" version="1.1" xmlns="http://www.w3.org/2000/svg" xmlns:xlink="http://www.w3.org/1999/xlink">
    <!-- Generator: Sketch 39.1 (31720) - http://www.bohemiancoding.com/sketch -->
    <title>search</title>
    <desc>Created with Sketch.</desc>
    <defs></defs>
    <g id="Page-1" stroke="none" stroke-width="1" fill="none" fill-rule="evenodd">
        <g id="maquettes" transform="translate(-1294.000000, -66.000000)" fill="#FFFFFF">
            <g id="header" transform="translate(730.000000, 62.000000)">
                <g id="search" transform="translate(564.000000, 4.000000)">
                    <g id="magnifying-glass-(1)">
                        <path d="M10.219853,1.75108013 C7.88517356,-0.583599307 4.08530943,-0.583599307 1.75063,1.75108013 C-0.583543332,4.08626568 -0.583543332,7.88562369 1.75063,10.2208092 C3.82972454,12.2993977 7.06780801,12.5220855 9.40096912,10.8989949 C9.45006166,11.1312988 9.56241779,11.3529744 9.7430986,11.5336552 L13.1431368,14.9336935 C13.6386173,15.4281617 14.4392812,15.4281617 14.9322311,14.9336935 C15.4272054,14.4387191 15.4272054,13.6380552 14.9322311,13.1445992 L11.5321929,9.74354873 C11.3525243,9.56438625 11.1303425,9.45152401 10.8980387,9.40243147 C12.5221415,7.06876425 12.2994536,3.83118689 10.219853,1.75108013 Z M9.14639644,9.14735268 C7.40335807,10.890391 4.56661881,10.890391 2.82408655,9.14735268 C1.0820604,7.40431432 1.0820604,4.56808116 2.82408655,2.82504279 C4.56661881,1.08251054 7.40335807,1.08251054 9.14639644,2.82504279 C10.8894348,4.56808116 10.8894348,7.40431432 9.14639644,9.14735268 Z" id="Shape"></path>
                    </g>
                </g>
            </g>
        </g>
    </g>
</svg>